<svg width="17" height="17" viewBox="0 0 17 17" fill="none" xmlns="http://www.w3.org/2000/svg">
<path d="M7.82102 0.0834961C3.55453 0.0834961 0.083252 3.55478 0.083252 7.82126C0.083252 12.0877 3.55453 15.559 7.82102 15.559C9.74022 15.559 11.4973 14.8549 12.8512 13.6935L15.7333 16.5756C15.8411 16.6834 15.9901 16.7496 16.1541 16.7496C16.4828 16.7496 16.7495 16.4829 16.7495 16.1542C16.7495 15.9896 16.6829 15.8407 16.575 15.7329L13.6923 12.8508C14.8542 11.4972 15.5588 9.74052 15.5588 7.82066C15.5588 3.55418 12.0875 0.0834961 7.82102 0.0834961ZM7.82102 1.27356C11.4438 1.27356 14.3681 4.1979 14.3681 7.8206C14.3681 11.4434 11.4437 14.3676 7.82102 14.3676C4.19825 14.3676 1.27397 11.4433 1.27397 7.8206C1.27397 4.19784 4.19831 1.27356 7.82102 1.27356Z" fill="#262626"/>
<path fill-rule="evenodd" clip-rule="evenodd" d="M4.875 6.33352C5.22018 6.33352 5.5 6.61334 5.5 6.95852V9.87518C5.5 10.2204 5.22018 10.5002 4.875 10.5002C4.52983 10.5002 4.25 10.2204 4.25 9.87518V6.95852C4.25 6.61334 4.52983 6.33352 4.875 6.33352Z" fill="#262626"/>
<path fill-rule="evenodd" clip-rule="evenodd" d="M10.7083 7.16685C11.0535 7.16685 11.3333 7.44667 11.3333 7.79185V9.87518C11.3333 10.2204 11.0535 10.5002 10.7083 10.5002C10.3632 10.5002 10.0833 10.2204 10.0833 9.87518V7.79185C10.0833 7.44667 10.3632 7.16685 10.7083 7.16685Z" fill="#262626"/>
<path fill-rule="evenodd" clip-rule="evenodd" d="M7.79159 4.66683C8.13676 4.66683 8.41659 4.94665 8.41659 5.29183V9.87516C8.41659 10.2203 8.13676 10.5002 7.79159 10.5002C7.44641 10.5002 7.16659 10.2203 7.16659 9.87516V5.29183C7.16659 4.94665 7.44641 4.66683 7.79159 4.66683Z" fill="#262626"/>
</svg>
