<svg width="18" height="17" viewBox="0 0 18 17" fill="none" xmlns="http://www.w3.org/2000/svg">
<path d="M16.8095 15.768H7.08916L4.2081 9.06975C3.83969 9.3328 3.74409 9.35019 3.27047 9.43792L6.0477 15.768H2.57616C1.88198 15.768 1.88177 16.8095 2.57575 16.8095H16.8372C17.5038 16.8095 17.5038 15.768 16.8095 15.768Z" fill="#666666"/>
<path d="M13.3418 5.74834C13.1314 5.80096 13.0492 5.74834 12.8211 5.74834C12.5931 5.74834 12.5109 5.75323 12.3004 5.70062V8.47784L9.94426 10.7298C9.7162 10.9578 9.6812 11.2911 9.83904 11.5717L10.8915 13.2205C11.6061 14.0323 12.3004 13.338 11.8037 12.6437L10.8915 11.3086L12.8211 9.34009L14.8555 11.3086L13.8183 12.7611C13.5639 13.4554 14.2582 13.8026 14.7305 13.338L15.908 11.5717C16.0659 11.3086 16.0309 10.9577 15.8028 10.7298L13.3418 8.47784V5.74834Z" fill="#666666"/>
<path d="M10.573 4.14941C10.3099 3.78099 10.2297 3.72676 10.1596 3.27062L5.35353 5.18261C5.61659 5.55102 5.69675 5.60526 5.76688 6.0614L10.573 4.14941Z" fill="#666666"/>
<path fill-rule="evenodd" clip-rule="evenodd" d="M10.697 2.8539C10.697 1.65775 11.6632 0.66687 12.884 0.66687C14.0801 0.66687 15.071 1.63311 15.071 2.8539C15.071 4.05005 14.1048 5.04093 12.884 5.04093C11.6632 5.04093 10.697 4.04991 10.697 2.8539ZM12.884 1.70833C12.2455 1.70833 11.7384 2.22579 11.7384 2.8539C11.7384 3.48191 12.2456 3.99948 12.884 3.99948C13.5225 3.99948 14.0296 3.48201 14.0296 2.8539C14.0296 2.21541 13.5121 1.70833 12.884 1.70833Z" fill="#666666"/>
<path fill-rule="evenodd" clip-rule="evenodd" d="M0.666641 6.81792C0.666641 5.62177 1.63289 4.63088 2.85368 4.63088C4.04984 4.63088 5.04072 5.59713 5.04072 6.81792C5.04072 8.02434 4.08029 9.02543 2.84877 9.00494C1.65481 9.0023 0.666641 8.03703 0.666641 6.81792ZM2.85368 5.67234C2.21519 5.67234 1.7081 6.18981 1.7081 6.81792C1.7081 7.45641 2.22557 7.96349 2.85368 7.96349H2.86348L2.86348 7.96358C3.48891 7.97535 3.99926 7.46911 3.99926 6.81792C3.99926 6.17942 3.4818 5.67234 2.85368 5.67234Z" fill="#666666"/>
</svg>
