<svg width="18" height="13" viewBox="0 0 18 13" fill="none" xmlns="http://www.w3.org/2000/svg">
<path fill-rule="evenodd" clip-rule="evenodd" d="M15.25 2.06949C15.6613 2.22863 15.8031 2.34299 15.9444 2.76393C16.3829 4.04967 16.3829 9.11704 15.9444 10.4028C15.8031 10.8219 15.6613 10.9398 15.25 11.0973C13.0519 11.9427 4.94808 11.9427 2.75 11.0973C2.34047 10.9399 2.19687 10.822 2.05555 10.4028C1.61707 9.11708 1.61707 4.0497 2.05555 2.76393C2.19689 2.34299 2.33869 2.22863 2.75 2.06949C4.94614 1.22401 13.0538 1.22401 15.25 2.06949ZM16.944 10.6761C16.6921 11.4136 16.2138 11.8398 15.4854 12.1211C13.0246 13.0708 4.97547 13.0708 2.51464 12.1211C1.78445 11.8399 1.30778 11.4154 1.056 10.6761C0.536011 9.14971 0.537758 4.0171 1.056 2.4907C1.30792 1.75317 1.7862 1.32522 2.51464 1.04565C4.97725 0.0959491 13.0226 0.0959491 15.4854 1.04565C16.2138 1.32509 16.694 1.75304 16.944 2.4907C17.464 4.01704 17.4622 9.14965 16.944 10.6761ZM11.285 6.10224L7.79133 4.13374C7.40721 3.91796 6.95597 4.19567 6.9451 4.6113V8.55728C6.9451 9.01006 7.47084 9.26288 7.83866 9.00639L11.2922 7.05911C11.6746 6.84507 11.6619 6.3074 11.285 6.10224ZM7.84788 5.20182V7.96479L10.2989 6.58281L7.84788 5.20182Z" fill="#666666"/>
</svg>
