<svg width="26" height="26" viewBox="0 0 26 26" fill="none" xmlns="http://www.w3.org/2000/svg">
<path opacity="0.2" d="M25.9295 13.0003C25.9295 20.1422 20.14 25.9319 12.9981 25.9319C5.85621 25.9319 0.0666199 20.1422 0.0666199 13.0003C0.0666199 5.85844 5.85621 0.0688477 12.9981 0.0688477C20.1399 0.0688477 25.9295 5.85844 25.9295 13.0003Z" fill="#505050"/>
<g opacity="0.8">
<path d="M12.9567 7L12.8769 7.27148V15.1493L12.9567 15.229L16.6135 13.0675L12.9567 7Z" fill="white"/>
<path d="M12.9568 7L9.29999 13.0675L12.9568 15.229V11.4054V7Z" fill="white"/>
<path d="M12.9568 16.4187L12.9117 16.4736V19.2798L12.9568 19.4113L16.6157 14.2583L12.9568 16.4187Z" fill="white"/>
<path d="M12.9568 19.4113V16.4187L9.29999 14.2583L12.9568 19.4113Z" fill="white"/>
<path d="M12.9568 15.229L16.6135 13.0675L12.9568 11.4054V15.229Z" fill="white"/>
<path d="M9.29999 13.0675L12.9567 15.229V11.4054L9.29999 13.0675Z" fill="white"/>
</g>
</svg>
