<svg width="68" height="36" viewBox="0 0 68 36" fill="none" xmlns="http://www.w3.org/2000/svg">
<path d="M30.3241 20.023H27.169C26.7706 20.023 26.3884 20.1814 26.1067 20.4631C25.8249 20.7449 25.6667 21.1271 25.6667 21.5255V24.8309C25.6667 25.2293 25.8249 25.6114 26.1067 25.8932C26.3884 26.1749 26.7706 26.3332 27.169 26.3332H30.3241C30.7226 26.3332 31.1047 26.1749 31.3865 25.8932C31.6682 25.6114 31.8264 25.2293 31.8264 24.8309V21.5255C31.8264 21.127 31.6682 20.7449 31.3865 20.4631C31.1047 20.1814 30.7225 20.023 30.3241 20.023ZM30.8249 24.8307V24.8309C30.8249 24.9636 30.7721 25.0909 30.6782 25.1849C30.5842 25.2789 30.4569 25.3316 30.3241 25.3316H27.169C26.8925 25.3316 26.6682 25.1074 26.6682 24.8309V21.5255C26.6682 21.249 26.8925 21.0247 27.169 21.0247H30.3241C30.4569 21.0247 30.5842 21.0775 30.6782 21.1714C30.7722 21.2652 30.8249 21.3927 30.8249 21.5255V24.8307ZM30.3241 9.66663H27.169C26.7706 9.66663 26.3884 9.82488 26.1067 10.1066C25.8249 10.3883 25.6667 10.7705 25.6667 11.1689V17.3789C25.6667 17.7773 25.8249 18.1595 26.1067 18.4412C26.3884 18.723 26.7706 18.8812 27.169 18.8812H30.3241C30.7226 18.8812 31.1047 18.723 31.3865 18.4412C31.6682 18.1595 31.8264 17.7773 31.8264 17.3789V11.1689C31.8264 10.7705 31.6682 10.3884 31.3865 10.1066C31.1047 9.82487 30.7225 9.66663 30.3241 9.66663ZM30.8249 17.379C30.8249 17.5117 30.7721 17.6391 30.6782 17.733C30.5842 17.827 30.4569 17.8798 30.3241 17.8798H27.169C26.8925 17.8798 26.6682 17.6555 26.6682 17.379V11.169C26.6682 10.8925 26.8925 10.6683 27.169 10.6683H30.3241C30.4569 10.6683 30.5842 10.721 30.6782 10.815C30.7722 10.909 30.8249 11.0363 30.8249 11.1691V17.379ZM40.8311 16.3273H34.4709C34.0725 16.3273 33.6903 16.4856 33.4086 16.7673C33.1269 17.049 32.9686 17.4312 32.9686 17.8296V24.831C32.9686 25.2295 33.1269 25.6116 33.4086 25.8934C33.6903 26.1751 34.0725 26.3333 34.4709 26.3333H40.8311C41.2295 26.3333 41.6117 26.1751 41.8935 25.8934C42.1752 25.6116 42.3334 25.2294 42.3334 24.831V17.8296C42.3334 17.4312 42.1752 17.049 41.8935 16.7673C41.6117 16.4856 41.2295 16.3273 40.8311 16.3273ZM41.3319 24.8311C41.3319 24.9639 41.2791 25.0912 41.1852 25.1852C41.0912 25.2792 40.9639 25.3319 40.8311 25.3319H34.4709C34.1944 25.3319 33.9702 25.1076 33.9702 24.8311V17.8297C33.9702 17.5532 34.1944 17.329 34.4709 17.329H40.8311C40.9639 17.329 41.0912 17.3817 41.1852 17.4757C41.2791 17.5695 41.3319 17.697 41.3319 17.8297V24.8311ZM40.8311 9.66663H34.4709C34.0725 9.66663 33.6903 9.82488 33.4086 10.1066C33.1269 10.3883 32.9686 10.7705 32.9686 11.1689V13.6831C32.9686 14.0815 33.1269 14.4637 33.4086 14.7454C33.6903 15.0272 34.0725 15.1854 34.4709 15.1854H40.8311C41.2295 15.1854 41.6117 15.0272 41.8935 14.7454C42.1752 14.4637 42.3334 14.0815 42.3334 13.6831V11.1689C42.3334 10.7705 42.1752 10.3884 41.8935 10.1066C41.6117 9.82487 41.2295 9.66663 40.8311 9.66663ZM41.3319 13.6831C41.3319 13.8158 41.2791 13.9431 41.1852 14.0371C41.0912 14.1311 40.9639 14.1838 40.8311 14.1838H34.4709C34.1944 14.1838 33.9702 13.9596 33.9702 13.6831V11.1689C33.9702 10.8924 34.1944 10.6682 34.4709 10.6682H40.8311C40.9639 10.6682 41.0912 10.7209 41.1852 10.8149C41.2791 10.9088 41.3319 11.0362 41.3319 11.1689V13.6831Z" fill="#666666"/>
</svg>
