<svg width="16" height="16" viewBox="0 0 16 16" fill="none" xmlns="http://www.w3.org/2000/svg">
<path d="M12.5866 15.1978C12.7773 15.1814 12.9519 15.0848 13.0664 14.9322C13.181 14.7796 13.2244 14.5857 13.186 14.3993L12.2146 9.6933L15.7817 6.45393C15.9092 6.33816 15.9869 6.17761 15.9985 6.00631C16.0101 5.83499 15.9548 5.66571 15.8442 5.53387C15.7335 5.40203 15.576 5.31778 15.4045 5.29859L10.6038 4.76345L8.61011 0.390214C8.53853 0.234193 8.40932 0.111556 8.24928 0.0477445C8.08923 -0.0159148 7.91075 -0.0159148 7.75072 0.0477445C7.59068 0.11156 7.46147 0.234193 7.38989 0.390214L5.39623 4.76345L0.595525 5.29847C0.424018 5.31766 0.266452 5.40207 0.15583 5.53391C0.0452086 5.66575 -0.0101 5.83488 0.00152101 6.00618C0.0131408 6.17765 0.0907608 6.33789 0.218267 6.45381L3.7854 9.69318L2.814 14.3991C2.7796 14.5673 2.81167 14.7421 2.90354 14.8873C2.99526 15.0324 3.13981 15.137 3.30715 15.1788C3.47431 15.2208 3.6514 15.197 3.80138 15.1125L8.00001 12.7383L12.1986 15.1126C12.3164 15.1794 12.4516 15.209 12.5866 15.1978Z" fill="#666666"/>
</svg>
