<svg width="18" height="18" viewBox="0 0 18 18" fill="none" xmlns="http://www.w3.org/2000/svg">
<path fill-rule="evenodd" clip-rule="evenodd" d="M16.9861 8.30554C17.0836 8.30554 17.1766 8.2645 17.2424 8.19254C17.3082 8.12057 17.3407 8.0242 17.3319 7.92712C16.9851 4.07897 13.9212 1.01504 10.0726 0.668021C9.97554 0.659302 9.87916 0.691737 9.8072 0.757537C9.73523 0.823337 9.69419 0.916341 9.69419 1.01388V7.95811C9.69419 8.14981 9.84975 8.30537 10.0415 8.30537L16.9861 8.30554ZM10.7361 1.70829C13.5139 2.40274 15.25 4.13885 16.2917 7.26385H10.7361V1.70829ZM8.3056 2.41099C8.3056 2.31613 8.26677 2.22533 8.19806 2.15977C8.12935 2.09432 8.03692 2.05979 7.94206 2.06421C3.89171 2.25405 0.666664 5.59748 0.666664 9.69443C0.666664 13.9131 4.08665 17.3333 8.30575 17.3333C12.2796 17.3333 15.5442 14.2994 15.9106 10.4215C15.922 10.3012 15.9306 10.1799 15.9363 10.058C15.9408 9.96311 15.9062 9.87068 15.8406 9.80197C15.7752 9.73327 15.6844 9.69444 15.5895 9.69444H8.30578L8.3056 2.41099ZM1.70833 9.6944C1.70833 6.09357 4.48611 3.4444 7.26389 3.09718L7.26384 10.3888C7.26384 10.5805 7.4194 10.7361 7.61111 10.7361H14.9028C14.5556 13.1666 11.9064 16.2916 8.30578 16.2916C4.47031 16.2916 1.70833 13.5298 1.70833 9.6944Z" fill="#666666"/>
</svg>
