<svg width="18" height="18" viewBox="0 0 18 18" fill="none" xmlns="http://www.w3.org/2000/svg">
<path d="M9 0.666626C4.40697 0.666626 0.666664 4.40694 0.666664 8.99996C0.666664 13.593 4.40697 17.3333 9 17.3333C13.593 17.3333 17.3333 13.593 17.3333 8.99996C17.3333 4.40694 13.593 0.666626 9 0.666626ZM9 16.2916C5.04651 16.2916 1.70833 12.9534 1.70833 8.99996C1.70833 5.0465 5.04654 1.70829 9 1.70829C12.9535 1.70829 16.2917 5.0465 16.2917 8.99996C16.2917 12.9534 12.9535 16.2916 9 16.2916Z" fill="#666666"/>
<path d="M8.99937 5.12423C8.57301 5.12423 8.22424 5.47299 8.22424 5.89935C8.22424 6.32571 8.57301 6.67448 8.99937 6.67448C9.42572 6.67448 9.77449 6.32571 9.77449 5.89935C9.77449 5.47299 9.42572 5.12423 8.99937 5.12423Z" fill="#666666"/>
<path d="M9.00098 7.25598C8.67154 7.25598 8.41955 7.50796 8.41955 7.83741V12.2948C8.41955 12.6242 8.67153 12.8762 9.00098 12.8762C9.33043 12.8762 9.58241 12.6242 9.58241 12.2948V7.83741C9.58241 7.50797 9.33043 7.25612 9.00098 7.25612V7.25598Z" fill="#666666"/>
</svg>
