<svg width="17" height="16" viewBox="0 0 17 16" fill="none" xmlns="http://www.w3.org/2000/svg">
<path d="M16.6273 3.29322C16.3052 2.88159 15.8039 2.63102 15.2849 2.63102H4.385L4.04491 1.30653C3.84802 0.536975 3.16787 0 2.38045 0H0.554809C0.250558 0 0 0.250567 0 0.554809C0 0.859061 0.250567 1.10962 0.554809 1.10962H2.38045C2.64887 1.10962 2.88159 1.28865 2.95325 1.55707L5.13682 10.2555C5.33371 11.0251 6.01386 11.5621 6.80128 11.5621H13.9426C14.7302 11.5621 15.4282 11.0251 15.6071 10.2555L16.9494 4.74293C17.0747 4.24179 16.9674 3.70494 16.6273 3.29322ZM15.8578 4.49239L14.5154 10.005C14.4439 10.2734 14.2111 10.4525 13.9426 10.4525H6.80125C6.53283 10.4525 6.3001 10.2734 6.22844 10.005L4.67134 3.75857H15.2849C15.464 3.75857 15.6428 3.84809 15.7502 3.99128C15.8577 4.13448 15.9114 4.31348 15.8578 4.49239Z" fill="#666666"/>
<path d="M13.3337 12.2782C12.3135 12.2782 11.4724 13.1195 11.4724 14.1396C11.4724 15.1598 12.3136 16.0009 13.3337 16.0009C14.354 16.0009 15.195 15.1597 15.195 14.1396C15.1772 13.1195 14.354 12.2782 13.3337 12.2782ZM13.3337 14.8734C12.9221 14.8734 12.5999 14.5513 12.5999 14.1396C12.5999 13.728 12.922 13.4057 13.3337 13.4057C13.7453 13.4057 14.0676 13.7278 14.0676 14.1396C14.0676 14.5333 13.7275 14.8734 13.3337 14.8734Z" fill="#666666"/>
<path d="M7.1775 12.2782C6.15725 12.2782 5.31616 13.1195 5.31616 14.1396C5.31616 15.1598 6.15737 16.0009 7.1775 16.0009C8.19776 16.001 9.03897 15.1598 9.03897 14.1396C9.03897 13.1195 8.19776 12.2782 7.1775 12.2782ZM7.1775 14.8734C6.76588 14.8734 6.44365 14.5513 6.44365 14.1396C6.44365 13.728 6.76575 13.4057 7.1775 13.4057C7.58913 13.4057 7.91136 13.7278 7.91136 14.1396C7.91136 14.5333 7.57126 14.8734 7.1775 14.8734Z" fill="#666666"/>
</svg>
