<svg width="25" height="25" viewBox="0 0 25 25" fill="none" xmlns="http://www.w3.org/2000/svg">
<path d="M12.4995 23.0002H5.83307C5.53536 23.0002 5.26025 22.8413 5.1114 22.5835C4.96254 22.3257 4.96254 22.008 5.1114 21.7502C5.26025 21.4924 5.53536 21.3335 5.83307 21.3335H12.4998H12.4997C12.7974 21.3335 13.0725 21.4924 13.2213 21.7502C13.3702 22.008 13.3702 22.3257 13.2213 22.5835C13.0725 22.8413 12.7974 23.0002 12.4997 23.0002H12.4995Z" fill="#11113E"/>
<path d="M17.4995 19.6668H0.8332C0.635659 19.6667 0.444525 19.5965 0.293847 19.4686C0.143319 19.3408 0.0430128 19.1635 0.0110631 18.9686C-0.0210239 18.7735 0.0172012 18.5736 0.119041 18.4043L1.64482 15.8611C2.20424 14.9286 2.49974 13.8617 2.49974 12.7743V9.66681C2.49974 7.89868 3.20216 6.20298 4.45244 4.95256C5.70257 3.70242 7.39828 3 9.16634 3C10.9344 3 12.6302 3.70242 13.8802 4.95256C15.1305 6.20284 15.8329 7.89854 15.8329 9.66681V12.7737C15.8329 13.8615 16.1286 14.9287 16.6884 15.8614L18.2146 18.4043C18.3165 18.5738 18.3546 18.7738 18.3225 18.9689C18.2904 19.1639 18.1899 19.3411 18.0393 19.469C17.8885 19.5968 17.6972 19.667 17.4995 19.6668ZM2.30462 18.0001H16.0277L14.9277 16.0305C14.4283 15.1363 14.1661 14.1291 14.1661 13.1049V9.66688C14.1661 7.88046 13.2132 6.22997 11.6662 5.33655C10.1192 4.44341 8.21319 4.44341 6.6662 5.33655C5.11921 6.22983 4.16622 7.88035 4.16622 9.66688V13.1049C4.16622 14.1291 3.90403 15.1363 3.40462 16.0305L2.30462 18.0001Z" fill="#11113E"/>
<rect x="5.5" y="0.5" width="19" height="13" rx="6.5" fill="#ECEAFF" stroke="white"/>
<path d="M12.3568 10C11.8311 10 11.3651 9.91582 10.9589 9.74746C10.5526 9.5733 10.233 9.34688 10 9.06821L10.6631 8.24093C10.8663 8.44412 11.1172 8.60668 11.4159 8.72859C11.7146 8.8447 12.0133 8.90276 12.312 8.90276C12.6705 8.90276 12.9483 8.83599 13.1454 8.70247C13.3426 8.56314 13.4411 8.38316 13.4411 8.16255C13.4411 7.93033 13.3455 7.76197 13.1544 7.65748C12.9632 7.54717 12.6585 7.49202 12.2403 7.49202C11.8639 7.49202 11.616 7.49782 11.4965 7.50943V6.39478C11.5682 6.40058 11.8161 6.40348 12.2403 6.40348C12.9751 6.40348 13.3426 6.19739 13.3426 5.7852C13.3426 5.56459 13.238 5.39623 13.0289 5.28012C12.8258 5.1582 12.5599 5.09724 12.2314 5.09724C11.6519 5.09724 11.147 5.29753 10.7169 5.69811L10.0807 4.92308C10.6422 4.30769 11.4039 4 12.3658 4C13.0648 4 13.6144 4.14223 14.0146 4.42671C14.4209 4.71118 14.624 5.09434 14.624 5.5762C14.624 5.92453 14.4956 6.21771 14.2387 6.45573C13.9818 6.68795 13.6741 6.83599 13.3157 6.89986C13.6681 6.93469 13.9878 7.07692 14.2745 7.32656C14.5673 7.57039 14.7136 7.8926 14.7136 8.29318C14.7136 8.79826 14.4986 9.21045 14.0684 9.52975C13.6383 9.84325 13.0677 10 12.3568 10Z" fill="#11113E"/>
<path d="M20 9.8955H15.5014V8.92888C16.7799 8.00581 17.6253 7.34978 18.0375 6.96081C18.4557 6.56604 18.6648 6.19739 18.6648 5.85486C18.6648 5.61684 18.5692 5.43106 18.378 5.29753C18.1868 5.16401 17.9598 5.09724 17.697 5.09724C17.0697 5.09724 16.535 5.32076 16.0929 5.76778L15.367 4.9492C15.6478 4.6357 15.9913 4.40058 16.3976 4.24383C16.8098 4.08128 17.234 4 17.6701 4C18.3272 4 18.8709 4.16836 19.301 4.50508C19.7371 4.8418 19.9552 5.29173 19.9552 5.85486C19.9552 6.33091 19.761 6.79826 19.3727 7.25689C18.9904 7.70972 18.387 8.22642 17.5625 8.80697H20V9.8955Z" fill="#11113E"/>
</svg>
