<svg width="18" height="15" viewBox="0 0 18 15" fill="none" xmlns="http://www.w3.org/2000/svg">
<path d="M14.4153 9.50901H9.31655V8.45947C9.31655 8.21105 9.11365 8.00924 8.86391 8.00924C8.61416 8.00924 8.41114 8.21131 8.41114 8.45947V9.50901H3.57358C2.22939 9.50901 0.666664 8.40636 0.666664 6.98491V3.61376C0.666664 2.10937 1.96388 2.10938 2.91098 2.10938L3.13416 2.1095L15.0778 2.10938C16.0248 2.10938 17.3221 2.10937 17.3221 3.61376V6.98491C17.322 8.40636 15.7596 9.50901 14.4153 9.50901ZM9.99834 8.45947H14.4153C15.4171 8.45947 16.2917 7.97945 16.2917 6.98491L16.6408 3.61376C16.6408 2.88982 16.3077 2.78697 15.078 2.78697L14.8548 2.7871L2.91115 2.78697C1.68119 2.78697 1.34829 2.88982 1.34829 3.61376L1.70833 6.94452C1.70833 7.93906 2.5717 8.45947 3.57358 8.45947H7.73045C7.73045 7.83748 8.239 7.33152 8.86446 7.33152C9.48979 7.33152 9.99834 7.83735 9.99834 8.45947Z" fill="#666666"/>
<path d="M11.8398 2.79823H6.21598V2.37004C6.21598 1.43476 7.25427 0.333252 8.11673 0.333252H9.87014C10.7325 0.333252 11.8398 1.43476 11.8398 2.37004V2.79823ZM7.22528 2.10947H10.7616C10.6527 1.69481 10.3015 1.24444 9.87014 1.24444H8.11673C7.68563 1.24419 7.3341 1.69485 7.22528 2.10947Z" fill="#666666"/>
<path d="M8.86298 11.0866C7.60487 11.0866 7.25765 10.3272 7.25765 9.70512V8.32365C7.25765 7.70166 7.60487 6.94214 8.86298 6.94214C10.0354 6.94214 10.3826 7.70153 10.3826 8.32365V9.7393C10.3828 10.3612 10.1211 11.0866 8.86298 11.0866ZM8.86298 7.90495C8.61323 7.90495 8.41021 8.10702 8.41021 8.35518V9.7393C8.41021 9.98771 8.61336 10.1895 8.86298 10.1895C9.11273 10.1895 9.31562 9.98746 9.31562 9.7393V8.35518C9.31562 8.10701 9.11273 7.90495 8.86298 7.90495Z" fill="#666666"/>
<path d="M16.1998 14.2225H1.80003C1.17508 14.2225 0.666664 13.6655 0.666664 12.9812L0.66679 3.33848C0.66679 2.65386 1.17524 2.09717 1.80015 2.09717H16.2C16.8249 2.09717 17.3333 2.65412 17.3333 3.33848V12.9812C17.3332 13.6655 16.8247 14.2225 16.1998 14.2225ZM2.05555 3.14609C1.81235 3.14609 1.70833 3.34595 1.70833 3.65072V12.8164C1.70833 13.1209 1.8126 13.1617 2.05555 13.1617H9H15.9444C16.1876 13.1617 16.2917 13.1212 16.2917 12.8164V3.67878C16.2917 3.37399 16.1874 3.14609 15.9444 3.14609H2.05555Z" fill="#666666"/>
</svg>
