<svg width="18" height="17" viewBox="0 0 18 17" fill="none" xmlns="http://www.w3.org/2000/svg">
<path d="M10.7889 0.500044C10.7709 0.499811 10.7529 0.500509 10.735 0.502136C10.6026 0.515271 10.4802 0.578623 10.393 0.679172C10.3058 0.779721 10.2604 0.909795 10.2662 1.04278C10.2719 1.17577 10.3283 1.30142 10.4238 1.39419L11.4988 2.47024H3.83082C2.0865 2.47024 0.666664 3.89026 0.666664 5.6344C0.666664 7.37872 2.08668 8.79766 3.83082 8.79766L5.98003 8.79778H12.5952C13.7805 8.79778 14.7209 9.73515 14.7209 10.9205C14.7209 12.1058 13.7804 13.0462 12.5952 13.0462L7.79347 13.0463L8.87056 11.9701C8.97076 11.8717 9.0269 11.7371 9.02632 11.5967C9.02574 11.4562 8.96855 11.322 8.86754 11.2243C8.76664 11.1267 8.63052 11.074 8.49021 11.0781C8.3549 11.0822 8.22645 11.1387 8.13219 11.2358L6.17225 13.1958C6.07391 13.2935 6.01869 13.4264 6.01869 13.565C6.01869 13.7035 6.07391 13.8364 6.17225 13.9341L8.13219 15.8983C8.26482 16.0254 8.45453 16.0736 8.6318 16.0247C8.80895 15.976 8.9475 15.8377 8.99645 15.6606C9.04539 15.4835 8.99761 15.2936 8.87056 15.1608L7.79752 14.0878H12.5954C14.3397 14.0878 15.7625 12.6648 15.7625 10.9207C15.7625 9.17634 14.3395 7.75651 12.5954 7.75651L5.9802 7.75639H3.831C2.64568 7.75639 1.70935 6.81994 1.70935 5.63474C1.70935 4.44943 2.6458 3.51297 3.831 3.51309L11.496 3.51298L10.4241 4.58495C10.3197 4.68119 10.2591 4.81592 10.2564 4.95784C10.2538 5.09977 10.3091 5.23659 10.4097 5.33678C10.5103 5.43698 10.6474 5.49173 10.7893 5.48848C10.9312 5.48511 11.0656 5.42408 11.1614 5.31934L13.1224 3.35836C13.2204 3.2606 13.2754 3.12797 13.2754 2.98963C13.2754 2.8513 13.2204 2.71867 13.1224 2.6209L11.1614 0.659912C11.064 0.558667 10.9297 0.501011 10.7892 0.500196L10.7889 0.500044ZM14.3834 0.96385C14.244 0.963153 14.11 1.01825 14.0115 1.11706C13.9132 1.21586 13.8585 1.35 13.8597 1.48939C13.8609 1.62888 13.9181 1.76197 14.0183 1.85892L14.8585 2.6991L14.0183 3.53917C13.8911 3.6718 13.843 3.86163 13.8917 4.03889C13.9404 4.21605 14.0787 4.3546 14.2559 4.40355C14.433 4.4525 14.6228 4.40471 14.7557 4.27766L15.5958 3.43747L16.4358 4.27766H16.436C16.5679 4.40948 16.7601 4.46097 16.9402 4.41273C17.1204 4.36437 17.2611 4.22372 17.3094 4.04355C17.3577 3.86338 17.3062 3.6711 17.1743 3.53919L16.3342 2.69912L17.1743 1.85894C17.2761 1.76071 17.3334 1.62529 17.3333 1.48384C17.3332 1.34249 17.2756 1.20718 17.1736 1.10907C17.0717 1.01095 16.9343 0.958651 16.7929 0.963883C16.658 0.968184 16.53 1.02479 16.4359 1.12162L15.5958 1.96169L14.7557 1.12162C14.6579 1.02107 14.5237 0.964231 14.3834 0.963883L14.3834 0.96385ZM3.12301 11.1086C1.7731 11.1086 0.666703 12.215 0.666703 13.5649C0.666703 14.9148 1.7731 16.0212 3.12301 16.0212C4.47292 16.0212 5.57931 14.9148 5.57931 13.5649C5.57931 12.215 4.47292 11.1086 3.12301 11.1086ZM3.12301 12.1501C3.91008 12.1501 4.53779 12.778 4.53779 13.5649C4.53779 14.352 3.90996 14.9797 3.12301 14.9797C2.33594 14.9797 1.70927 14.3519 1.70927 13.5649C1.70927 12.7779 2.33603 12.1501 3.12301 12.1501Z" fill="#666666"/>
</svg>
