<svg width="34" height="22" viewBox="0 0 34 22" fill="none" xmlns="http://www.w3.org/2000/svg">
<path d="M29.7534 10.7656C30.9962 13.4083 30.4623 16.5764 28.4029 18.653C27.1578 19.9098 25.4372 20.6888 23.5371 20.6888C21.8636 20.6888 20.3291 20.0842 19.1357 19.0833L16.9978 22L14.8599 19.0833C13.6664 20.0865 12.132 20.6888 10.4584 20.6888C8.55833 20.6888 6.83769 19.9121 5.59264 18.653C3.5355 16.5764 2.99934 13.4083 4.24215 10.7656L7.19662 11.0872C6.62906 11.9568 5.66442 14.8259 7.52415 16.7032C8.27567 17.4619 9.31209 17.9306 10.4584 17.9306C11.6048 17.9306 12.6412 17.4619 13.3927 16.7032C14.1442 15.9446 14.6086 14.8984 14.6086 13.7412C14.6086 12.9735 14.4022 12.2353 14.0298 11.6012C13.6552 10.9649 13.1168 10.4282 12.455 10.0613C8.8881 8.31086 3.17208 7.06763 0 6.46752V0L13.7786 7.65867C14.8756 8.2701 15.7662 9.15327 16.3786 10.1995C16.6343 10.6343 16.843 11.0985 17 11.5831C17.157 11.1008 17.3657 10.6365 17.6214 10.1995C18.2361 9.15327 19.1244 8.2701 20.2214 7.65867L34 0V6.46752C30.8279 7.06763 25.1119 8.31086 21.545 10.0613C20.8832 10.4259 20.3448 10.9626 19.9702 11.6012C19.5978 12.2353 19.3914 12.9713 19.3914 13.7412C19.3914 14.8984 19.8558 15.9446 20.6073 16.7032C21.3588 17.4619 22.3952 17.9306 23.5416 17.9306C24.6879 17.9306 25.7243 17.4619 26.4758 16.7032C28.3356 14.8259 27.3709 11.9568 26.8034 11.0872L29.7579 10.7656H29.7534ZM10.4584 11.3159C9.13262 11.3159 8.05806 12.4006 8.05806 13.739C8.05806 15.0773 9.13262 16.162 10.4584 16.162C11.7842 16.162 12.8588 15.0773 12.8588 13.739C12.8588 12.4006 11.7842 11.3159 10.4584 11.3159ZM23.5348 11.3159C24.8606 11.3159 25.9352 12.4006 25.9352 13.739C25.9352 15.0773 24.8606 16.162 23.5348 16.162C22.209 16.162 21.1345 15.0773 21.1345 13.739C21.1345 12.4006 22.209 11.3159 23.5348 11.3159Z" fill="#3F3BC3"/>
</svg>
